<svg width="86" height="35" viewBox="0 0 86 35" fill="none" xmlns="http://www.w3.org/2000/svg">
<path d="M0.28 14V-9.53674e-07H11.84V2.58H3.08V5.7H11.52V8.28H3.08V11.4H11.84V14H0.28ZM14.2644 4H16.7644L17.0244 5.28C18.0444 4.28 19.5044 3.7 21.1844 3.7C24.5044 3.7 27.0044 5.96 27.0044 8.98C27.0044 12.04 24.5244 14.3 21.1844 14.3C19.5244 14.3 18.0844 13.74 17.0644 12.74V18H14.2644V4ZM24.2044 8.98C24.2044 7.34 22.6844 6.16 20.5844 6.16C18.4844 6.16 17.0644 7.32 17.0644 8.98C17.0644 10.66 18.4844 11.82 20.5844 11.82C22.7244 11.82 24.2044 10.62 24.2044 8.98ZM31.1514 9.02C31.1514 10.62 32.5714 11.74 34.4714 11.74C35.9914 11.74 37.1114 11.14 37.5714 10.1H40.4714C39.9514 12.64 37.5714 14.3 34.4714 14.3C30.9714 14.3 28.3514 12.04 28.3514 9.02C28.3514 5.96 30.9514 3.7 34.4714 3.7C37.5514 3.7 39.9114 5.32 40.4514 7.88H37.5514C37.0914 6.86 35.9714 6.24 34.4714 6.24C32.5514 6.24 31.1514 7.4 31.1514 9.02ZM0.28 34V20H3.08V25.7H10.74V20H13.54V34H10.74V28.28H3.08V34H0.28ZM24.8036 28.66V24H27.6036V34H25.0836L24.8236 32.34C23.9436 33.56 22.6236 34.3 21.0636 34.3C18.0636 34.3 15.9636 31.98 15.9636 28.66V24H18.7636V28.66C18.7636 30.46 20.0236 31.7 21.8036 31.7C23.5636 31.7 24.8036 30.44 24.8036 28.66ZM32.9238 29.34V34H30.1238V24H32.6238L32.9038 25.64C33.7838 24.44 35.1038 23.7 36.6638 23.7C39.6638 23.7 41.7638 26 41.7638 29.34V34H38.9638V29.34C38.9638 27.54 37.6838 26.28 35.9038 26.28C34.1237 26.28 32.9238 27.54 32.9238 29.34ZM48.5039 26.58V29.32C48.5039 30.92 49.4639 31.7 51.3839 31.7V34.3C47.6839 34.3 45.7039 32.46 45.7039 29.32V26.58H43.6639V25.46L47.3839 21.76H48.5039V24H51.3839V26.58H48.5039ZM64.7841 29.7H55.7041C56.0041 31.14 57.2841 32.1 58.9641 32.1C60.1641 32.1 61.1241 31.66 61.6441 30.94H64.4841C63.7241 32.98 61.5841 34.3 58.8441 34.3C55.4041 34.3 52.8241 32.04 52.8241 29.02C52.8241 25.96 55.3841 23.7 58.8441 23.7C62.2641 23.7 64.8241 25.84 64.8241 29.02C64.8241 29.24 64.8241 29.48 64.7841 29.7ZM55.7041 28.3H61.9441C61.6641 26.88 60.4841 25.96 58.8441 25.96C57.2241 25.96 56.0041 26.9 55.7041 28.3ZM74.2648 23.7V26.66C71.2848 26.66 69.5448 28.36 69.5448 31.16V34H66.7448V24H69.2448L69.5448 26.6C70.4648 24.82 72.1248 23.7 74.2648 23.7ZM85.3455 31.16C85.3455 32.96 83.4455 34.3 80.5255 34.3C77.5255 34.3 75.4855 32.98 75.2655 30.9H78.0655C78.2255 31.78 79.1055 32.3 80.5255 32.3C81.6655 32.3 82.5255 31.8 82.5255 31.16C82.5255 28.96 75.5255 30.9 75.5255 26.88C75.5255 25.12 77.3255 23.7 80.2455 23.7C83.2455 23.7 85.0255 25 85.1855 27.08H82.3855C82.2655 26.28 81.5455 25.72 80.2255 25.72C79.1255 25.72 78.3255 26.2 78.3255 26.86C78.3255 29 85.3455 26.84 85.3455 31.16Z" fill="#F2F3EF"/>
</svg>
